<svg version="1.2" xmlns="http://www.w3.org/2000/svg" viewBox="0 0 1523 892" width="1523" height="892"><path fill="#fe485580" d="m169.3 165.9c2.5-1.1 3.9-3.2 3.9-5.8 0-4.5-4-7-10.7-7h-13.8v26.9h14.4c7.4 0 10.9-2.9 10.9-7.7 0-3.1-1.6-5.3-4.7-6.4zm-13.4-7.5h5.9c2.7 0 4.1 0.9 4.1 2.8 0 2-1.4 3-4.1 3h-5.9zm6.5 16.2h-6.5v-5.9h6.7c2.8 0 4.1 0.9 4.1 3 0 2-1.4 2.9-4.3 2.9zm43.6-8c0-8.7-6.1-14-14-14-8.2 0-14.4 5.8-14.4 13.9 0 8 6.1 13.9 15.4 13.9 4.8 0 8.6-1.5 11.1-4.4l-4.2-4.5c-1.8 1.8-3.9 2.6-6.7 2.6-4.1 0-7-2.1-7.7-5.4h20.3c0.1-0.7 0.2-1.5 0.2-2.1zm-14-8.1c3.5 0 6.1 2.3 6.6 5.6h-13.2c0.5-3.4 3.1-5.6 6.6-5.6zm32.8 21.9c5.6 0 10.1-2.5 12-6.9l-6-3.2c-1.5 2.6-3.6 3.6-6.1 3.6-3.9 0-7-2.7-7-7.4 0-4.7 3.1-7.5 7-7.5 2.5 0 4.6 1.2 6.1 3.8l6-3.3c-1.9-4.4-6.4-6.9-12-6.9-8.7 0-15 5.8-15 13.9 0 8.1 6.3 13.9 15 13.9zm31.3-18.8h-6.8v-8.6h-7.7v26.9l13.5 0.1c7.5 0 11.9-3.5 11.9-9.4 0-5.6-3.8-8.9-10.9-9zm-1.7 12.9h-5.1v-7.9l5.1 0.1c3 0.1 4.7 1.2 4.7 3.8 0 2.6-1.7 4-4.7 4zm31.6 5.5h7.7v-10.1h11.7v10.1h7.8v-27h-7.8v10.5h-11.7v-10.5h-7.7zm45.1-27.3c-4.2 0-8.6 1.2-11.6 3.3l2.9 5.5c1.9-1.6 4.8-2.5 7.7-2.5 4.2 0 6.2 1.9 6.2 5.2h-6.2c-8.2 0-11.6 3.3-11.6 8.1 0 4.7 3.8 8.2 10.1 8.2 3.9 0 6.8-1.4 8.2-3.8v3.3h7.3v-15.3c0-8.2-4.7-12-13-12zm-0.6 22.5c-2.7 0-4.4-1.3-4.4-3.2 0-1.9 1.2-3.2 4.8-3.2h5.4v2.7c-0.9 2.5-3.2 3.7-5.8 3.7zm36-20.2c-4 0-7.3 1.5-9.6 4 0.6-5.2 3.3-7.8 9.5-9l11.2-2.3-1-6.7-12.8 2.6c-9.8 2-14.3 8.5-14.3 19.3 0 11.9 5.9 17.7 15.1 17.7 8.5 0 14.6-5.1 14.6-13 0-7.6-5-12.6-12.7-12.6zm-1.9 19.6c-4 0-6.7-2.9-6.7-6.9 0-4.1 2.7-6.7 6.7-6.7 4 0 6.6 2.6 6.6 6.7 0 3.9-2.5 6.9-6.6 6.9zm32.5 5.9c8.6 0 14.8-5.8 14.8-13.9 0-8.1-6.2-13.9-14.8-13.9-8.5 0-14.7 5.8-14.7 13.9 0 8.1 6.2 13.9 14.7 13.9zm0-6.5c-3.9 0-6.9-2.8-6.9-7.4 0-4.6 3-7.5 6.9-7.5 4 0 6.9 2.9 6.9 7.5 0 4.6-3 7.4-6.9 7.4zm36-21.3c-3.6 0-6.5 1.2-8.5 3.5v-3.1h-7.4v36.6h7.8v-12.5c2 2.2 4.7 3.3 8.1 3.3 7.5 0 13.4-5.5 13.4-13.9 0-8.5-5.9-13.9-13.4-13.9zm-1.4 21.3c-3.8 0-6.8-2.8-6.8-7.4 0-4.6 3-7.5 6.8-7.5 3.9 0 6.9 2.9 6.9 7.5 0 4.6-3 7.4-6.9 7.4zm54.9-8c2.5-1.1 4-3.2 4-5.9 0-4.4-4-7-10.8-7h-13.7v26.9h14.3c7.4 0 11-2.9 11-7.6 0-3.2-1.6-5.4-4.8-6.4zm-13.4-7.5h5.9c2.7 0 4.1 0.9 4.1 2.8 0 1.9-1.4 2.9-4.1 2.9h-5.9zm6.6 16.3h-6.6v-6h6.7c2.9 0 4.2 1 4.2 3 0 2-1.5 3-4.3 3zm30 5.7c8.5 0 14.7-5.7 14.7-13.8 0-8.2-6.2-13.9-14.7-13.9-8.6 0-14.8 5.7-14.8 13.9 0 8.1 6.2 13.8 14.8 13.8zm0-6.4c-3.9 0-6.9-2.8-6.9-7.4 0-4.7 3-7.5 6.9-7.5 3.9 0 6.8 2.8 6.8 7.5 0 4.6-2.9 7.4-6.8 7.4zm32.7 6.4c8.5 0 14.7-5.7 14.7-13.8 0-8.2-6.2-13.9-14.7-13.9-8.5 0-14.8 5.7-14.8 13.9 0 8.1 6.3 13.8 14.8 13.8zm0-6.4c-3.9 0-6.9-2.8-6.9-7.4 0-4.7 3-7.5 6.9-7.5 3.9 0 6.8 2.8 6.8 7.5 0 4.6-2.9 7.4-6.8 7.4zm36-21.3c-3.7 0-6.5 1.1-8.5 3.5v-3.1h-7.5v36.6h7.8v-12.5c2 2.1 4.8 3.2 8.2 3.2 7.5 0 13.3-5.4 13.3-13.8 0-8.5-5.8-13.9-13.3-13.9zm-1.4 21.3c-3.9 0-6.9-2.8-6.9-7.4 0-4.7 3-7.5 6.9-7.5 3.9 0 6.9 2.8 6.9 7.5 0 4.6-3 7.4-6.9 7.4zm38.9-20.9l-7.6 18.2-7.6-18.2h-8l11.6 27.1-0.1 0.2c-1 2.4-2.2 3.4-4.4 3.4-1.5 0-3.2-0.7-4.4-1.7l-2.8 5.5c1.7 1.6 4.7 2.5 7.5 2.5 4.8 0 8.5-2 11.1-8.5l12.2-28.5zm42.1 26.9h9.2l-8.5-13.9 7.9-13h-8.3l-6 10.5h-3.8v-10.5h-7.7v10.5h-3.8l-6-10.5h-8.2l7.8 13-8.4 13.9h9.2l5.7-10.2h3.7v10.2h7.7v-10.2h3.8zm38.6-13.3c0-8.7-6.1-14-14-14-8.2 0-14.4 5.8-14.4 13.9 0 8 6.1 13.8 15.4 13.8 4.8 0 8.6-1.5 11.1-4.3l-4.2-4.5c-1.8 1.7-3.9 2.6-6.7 2.6-4.1 0-7-2.1-7.7-5.4h20.3c0.1-0.7 0.2-1.5 0.2-2.1zm-14-8.1c3.5 0 6.1 2.2 6.6 5.6h-13.2c0.5-3.4 3.1-5.6 6.6-5.6zm20 21.4h7.7v-10.1h11.7v10.1h7.8v-26.9h-7.8v10.5h-11.7v-10.5h-7.7zm34.7 0h7.2l13-16v16h7.8v-26.9h-7.2l-13.1 16v-16h-7.7zm46.5-26.9c-7.9 0-12.8 3.5-12.8 9.9 0 3.9 2 6.7 5.7 8.2l-6.1 8.8h8.3l5.1-7.7h5.7v7.7h7v-26.9zm0.1 6.3h5.8v7.7h-5.9c-3.2 0-4.9-1.2-4.9-3.9 0-2.7 1.8-3.8 5-3.8z"/><path fill="#fe485580" d="m55.5 842.4c5.7 0 10.2-2.5 12.1-6.8l-6.1-3.3c-1.4 2.6-3.5 3.7-6 3.7-4 0-7-2.7-7-7.5 0-4.6 3-7.4 7-7.4 2.5 0 4.6 1.2 6 3.7l6.1-3.3c-1.9-4.4-6.4-6.8-12.1-6.8-8.7 0-15 5.8-15 13.8 0 8.1 6.3 13.9 15 13.9zm37.4-14.4c2.5-1.2 3.9-3.2 3.9-6 0-4.4-4-6.9-10.7-6.9h-13.8v26.9h14.4c7.4 0 11-2.9 11-7.6 0-3.3-1.6-5.4-4.8-6.4zm-13.4-7.6h5.9c2.7 0 4.1 0.9 4.1 2.9 0 1.9-1.4 2.9-4.1 2.9h-5.9zm6.5 16.3h-6.5v-6h6.7c2.9 0 4.1 1 4.1 3 0 2-1.4 3-4.3 3zm30.1 5.6c8.5 0 14.7-5.7 14.7-13.8 0-8.1-6.2-13.8-14.7-13.8-8.6 0-14.8 5.7-14.8 13.8 0 8.1 6.2 13.9 14.8 13.9zm0-6.4c-3.9 0-6.9-2.8-6.9-7.5 0-4.6 3-7.4 6.9-7.4 3.9 0 6.8 2.8 6.8 7.4 0 4.7-2.9 7.5-6.8 7.5zm46.2-7.4c0-8.6-6.1-13.9-14-13.9-8.2 0-14.4 5.8-14.4 13.8 0 8 6.1 13.9 15.4 13.9 4.9 0 8.6-1.5 11.1-4.4l-4.2-4.5c-1.8 1.7-3.8 2.6-6.7 2.6-4.1 0-6.9-2-7.7-5.4h20.4c0-0.6 0.1-1.5 0.1-2.1zm-13.9-8c3.5 0 6 2.1 6.5 5.6h-13.2c0.5-3.5 3.1-5.6 6.7-5.6zm40.5 7.3c2.5-1.2 3.9-3.2 3.9-5.9 0-4.4-4-6.9-10.7-6.9h-13.8v26.9h14.4c7.4 0 10.9-2.9 10.9-7.7 0-3.2-1.6-5.3-4.7-6.4zm-13.4-7.5h5.9c2.7 0 4.1 0.8 4.1 2.8 0 1.9-1.4 2.9-4.1 2.9h-5.9zm6.5 16.3h-6.5v-5.9h6.7c2.8 0 4.1 0.9 4.1 3 0 2-1.4 2.9-4.3 2.9zm33.3-22c-3.6 0-6.5 1.2-8.5 3.5v-3.1h-7.5v36.6h7.9v-12.5c2 2.2 4.7 3.2 8.1 3.2 7.5 0 13.4-5.4 13.4-13.9 0-8.4-5.9-13.8-13.4-13.8zm-1.4 21.3c-3.9 0-6.8-2.8-6.8-7.5 0-4.6 2.9-7.4 6.8-7.4 3.9 0 6.9 2.8 6.9 7.4 0 4.7-3 7.5-6.9 7.5zm46.4-7.3c0-8.7-6.1-14-14-14-8.2 0-14.4 5.8-14.4 13.8 0 8 6.1 13.9 15.4 13.9 4.8 0 8.6-1.5 11.1-4.4l-4.2-4.5c-1.8 1.8-3.9 2.7-6.7 2.7-4.1 0-7-2.1-7.7-5.4h20.3c0.1-0.7 0.2-1.5 0.2-2.1zm-14-8.1c3.5 0 6.1 2.2 6.6 5.6h-13.2c0.5-3.4 3.1-5.6 6.6-5.6zm53.3 21.4l-0.1-26.9h-7.3l-9.2 15.6-8.6-15.6h-8.1v26.9h7v-16.1l7.9 13.5h3.3l8-13.5v16.1zm33.6-13.3c0-8.7-6.1-14-14-14-8.2 0-14.3 5.8-14.3 13.8 0 8 6 13.9 15.3 13.9 4.8 0 8.6-1.5 11.1-4.4l-4.1-4.5c-1.9 1.8-4 2.7-6.8 2.7-4.1 0-7-2.1-7.7-5.4h20.3c0.1-0.7 0.2-1.5 0.2-2.1zm-14-8.1c3.5 0 6.1 2.2 6.7 5.6h-13.3c0.6-3.4 3.1-5.6 6.6-5.6zm20 21.4h7.7v-10h11.7v10h7.8v-26.9h-7.8v10.5h-11.7v-10.5h-7.7zm34.7 0h7.7v-10h11.7v10h7.8v-26.9h-7.8v10.5h-11.7v-10.5h-7.7zm48.8-18.3h-6.4v-8.6h-7.7v26.9l13.1 0.1c7.5 0 11.7-3.5 11.7-9.4 0-5.7-3.6-8.9-10.7-9zm13.6 18.3h7.7v-26.9h-7.7zm-15.3-5.5h-4.7v-7.8l4.7 0.1c3 0 4.6 1.1 4.6 3.8 0 2.6-1.6 4-4.6 3.9zm56.7-7.8c0-8.7-6.1-14-14-14-8.2 0-14.4 5.8-14.4 13.9 0 8 6.1 13.8 15.4 13.8 4.8 0 8.6-1.5 11.1-4.3l-4.2-4.5c-1.8 1.7-3.9 2.6-6.7 2.6-4.1 0-7-2.1-7.7-5.4h20.3c0.1-0.7 0.2-1.5 0.2-2.1zm-14-8.1c3.5 0 6.1 2.2 6.6 5.6h-13.2c0.5-3.4 3.1-5.6 6.6-5.6zm46.7 21.8c8.6 0 14.8-5.7 14.8-13.8 0-8.1-6.2-13.9-14.8-13.9-8.5 0-14.8 5.8-14.8 13.9 0 8.1 6.3 13.8 14.8 13.8zm0-6.4c-3.9 0-6.9-2.8-6.9-7.4 0-4.7 3-7.5 6.9-7.5 3.9 0 6.9 2.8 6.9 7.5 0 4.6-3 7.4-6.9 7.4zm35.7-19c-4 0-7.3 1.4-9.6 3.9 0.6-5.1 3.3-7.7 9.5-8.9l11.3-2.3-1.1-6.7-12.8 2.6c-9.8 2-14.3 8.5-14.3 19.2 0 12 5.9 17.8 15.1 17.8 8.5 0 14.7-5.2 14.7-13 0-7.6-5.1-12.6-12.8-12.6zm-1.9 19.6c-3.9 0-6.7-2.9-6.7-6.9 0-4.1 2.7-6.7 6.7-6.7 4 0 6.7 2.6 6.7 6.7 0 3.9-2.6 6.9-6.7 6.9zm20 5.4h7.7v-10h11.7v10h7.8v-26.9h-7.8v10.5h-11.7v-10.5h-7.7zm47.3 0.4c8.5 0 14.7-5.7 14.7-13.8 0-8.1-6.2-13.9-14.7-13.9-8.6 0-14.8 5.8-14.8 13.9 0 8.1 6.2 13.8 14.8 13.8zm0-6.4c-3.9 0-6.9-2.8-6.9-7.4 0-4.7 3-7.5 6.9-7.5 3.9 0 6.8 2.8 6.8 7.5 0 4.6-2.9 7.4-6.8 7.4zm40.6-8c2.5-1.2 4-3.2 4-5.9 0-4.4-4-7-10.8-7h-13.7v26.9h14.3c7.4 0 11-2.9 11-7.6 0-3.2-1.6-5.4-4.8-6.4zm-13.4-7.6h5.9c2.7 0 4.1 0.9 4.1 2.9 0 1.9-1.4 2.9-4.1 2.9h-5.9zm6.6 16.3h-6.6v-6h6.7c2.9 0 4.2 1 4.2 3 0 2-1.5 3-4.3 3zm20.2-21.6l-0.4 10.8c-0.3 5.1-0.6 9.7-4.3 9.7-0.3 0-0.7 0-1.1-0.1l-0.4 6.4c1.5 0.4 2.8 0.6 4 0.6 6.7 0 8.2-6.7 8.6-16.3l0.3-4.7h8.5v20.5h7.8v-26.9zm56.6 13.5c0-8.6-6.1-13.9-14-13.9-8.2 0-14.3 5.8-14.3 13.8 0 8 6 13.9 15.3 13.9 4.9 0 8.6-1.5 11.1-4.4l-4.1-4.5c-1.9 1.8-3.9 2.6-6.8 2.6-4.1 0-6.9-2-7.7-5.4h20.4c0-0.6 0.1-1.5 0.1-2.1zm-13.9-8c3.5 0 6 2.2 6.6 5.6h-13.3c0.6-3.5 3.1-5.6 6.7-5.6zm19.9 21.4h7.8v-10.1h11.7v10.1h7.8v-26.9h-7.8v10.5h-11.7v-10.5h-7.8zm34.7 0h7.2l13.1-16v16h7.7v-26.9h-7.1l-13.1 16v-16h-7.8zm46.6-26.9c-7.9 0-12.9 3.5-12.9 9.9 0 3.9 2.1 6.7 5.8 8.2l-6.2 8.8h8.3l5.1-7.7h5.8v7.7h6.9v-26.9zm0.2 6.3h5.8v7.7h-5.9c-3.3 0-5-1.2-5-3.9 0-2.7 1.9-3.8 5.1-3.8z"/><path fill="#fe485580" d="m1011.2 854.1l-7.6 18.3-7.6-18.3h-8l11.6 27.1-0.1 0.3c-1 2.3-2.2 3.3-4.4 3.3-1.5 0-3.1-0.7-4.4-1.7l-2.8 5.5c1.7 1.6 4.7 2.5 7.5 2.5 4.8 0 8.6-2 11.1-8.5l12.2-28.5zm11.3 26.9h7.7v-10h11.7v10h7.8v-26.9h-7.8v10.5h-11.7v-10.5h-7.8zm34.8 0h7.1l13.1-16v16h7.8v-26.9h-7.2l-13.1 16v-16h-7.7zm54.5 0h9.2l-10.1-14 9.4-12.9h-8.2l-7.3 10.4h-4.2v-10.4h-7.8v26.9h7.8v-10.2h4zm23-27.3c-4.3 0-8.7 1.1-11.6 3.3l2.8 5.4c1.9-1.6 4.9-2.5 7.8-2.5 4.1 0 6.1 1.9 6.1 5.3h-6.1c-8.3 0-11.6 3.3-11.6 8 0 4.7 3.7 8.2 10.1 8.2 3.9 0 6.7-1.3 8.1-3.8v3.4h7.4v-15.4c0-8.1-4.8-11.9-13-11.9zm-0.6 22.4c-2.8 0-4.4-1.2-4.4-3.2 0-1.8 1.1-3.2 4.8-3.2h5.3v2.8c-0.9 2.5-3.1 3.6-5.7 3.6zm23.1-22l-0.4 10.8c-0.2 5.1-0.5 9.7-4.2 9.7-0.4 0-0.8 0-1.2-0.1l-0.4 6.5c1.6 0.4 2.9 0.5 4.1 0.5 6.6 0 8.2-6.6 8.6-16.3l0.2-4.7h8.5v20.5h7.8v-26.9zm45.1 8.6h-6.8v-8.6h-7.8v26.9h13.5c7.5 0 12-3.4 12-9.4 0-5.6-3.9-8.9-10.9-8.9zm-1.8 12.8h-5v-7.8h5c3 0.1 4.7 1.2 4.7 3.8 0 2.7-1.7 4-4.7 4zm17.5 5.5h7.7v-10h11.7v10h7.8v-26.9h-7.8v10.5h-11.7v-10.5h-7.7zm48.8-18.3h-6.4v-8.6h-7.7v26.9h13.1c7.5 0 11.7-3.4 11.7-9.4 0-5.6-3.6-8.8-10.7-8.9zm13.6 18.3h7.8v-26.9h-7.8zm-15.3-5.5h-4.7v-7.8l4.7 0.1c3 0 4.6 1.1 4.6 3.7 0 2.7-1.6 4-4.6 4zm56.7-7.8c0-8.7-6.1-14-14-14-8.2 0-14.4 5.8-14.4 13.8 0 8 6.1 13.9 15.4 13.9 4.9 0 8.6-1.5 11.1-4.4l-4.2-4.5c-1.8 1.8-3.9 2.7-6.7 2.7-4.1 0-7-2.1-7.7-5.4h20.4c0-0.7 0.1-1.5 0.1-2.1zm-14-8.1c3.5 0 6.1 2.2 6.6 5.6h-13.2c0.5-3.4 3.1-5.6 6.6-5.6zm71.3 7.9c0-8.3-5.9-13-16.1-13.7v-9.9h-7.2v9.9c-10.4 0.7-16.1 5.3-16.1 13.7 0 8.5 5.8 13.3 16.1 14v9.2h7.2v-9.2c10.2-0.7 16.1-5.6 16.1-14zm-31.8 0c0-4.5 2.5-7.1 8.5-7.7v15.7c-6-0.7-8.5-3.3-8.5-8zm15.7 8v-15.7c6 0.6 8.6 3.1 8.6 7.7 0 4.7-2.6 7.3-8.6 8zm21.4 5.5h7.2l13-16v16h7.8v-26.9h-7.2l-13.1 16v-16h-7.7zm51.9-26.9v11.3c-1.8 0.9-3.7 1.3-5.8 1.3-3.1 0-4.9-1.3-4.9-4.7v-7.9h-7.8v8.4c0 7.1 3.9 10.2 11 10.2 2.9 0 5.4-0.7 7.5-1.7v10h7.8v-26.9zm15.3 26.9h7.2l13-16v16h7.8v-26.9h-7.2l-13.1 16v-16h-7.7z"/></svg>
