<svg version="1.2" xmlns="http://www.w3.org/2000/svg" viewBox="0 0 1523 892" width="1523" height="892"><path fill="#fe485580" d="m167.9 152.7c-4.3 0-8.6 1.2-11.6 3.3l2.8 5.4c2-1.5 4.9-2.5 7.8-2.5 4.2 0 6.2 2 6.2 5.3h-6.2c-8.2 0-11.6 3.3-11.6 8.1 0 4.6 3.8 8.1 10.1 8.1 3.9 0 6.7-1.3 8.2-3.7v3.3h7.3v-15.3c0-8.2-4.8-12-13-12zm-0.6 22.5c-2.7 0-4.4-1.3-4.4-3.3 0-1.8 1.2-3.1 4.8-3.1h5.4v2.7c-0.9 2.5-3.2 3.7-5.8 3.7zm20.6 4.8h7.8v-37.1h-7.8zm15.1 0h7.8v-37.1h-7.8zm55.5-13.3c0-8.7-6.1-14-14-14-8.2 0-14.3 5.8-14.3 13.9 0 8 6 13.8 15.3 13.8 4.9 0 8.6-1.5 11.1-4.3l-4.1-4.5c-1.9 1.7-3.9 2.6-6.8 2.6-4.1 0-6.9-2.1-7.7-5.4h20.4c0-0.7 0.1-1.5 0.1-2.1zm-13.9-8.1c3.5 0 6 2.2 6.6 5.6h-13.3c0.6-3.4 3.1-5.6 6.7-5.6zm39-5.5v3.1c-2-2.3-4.8-3.5-8.4-3.5-7.6 0-13.5 5.4-13.5 13.9 0 8.4 5.9 13.8 13.5 13.8 3.3 0 6.1-1 8-3.2v12.5h7.8v-36.6zm-7 20.9c-3.9 0-6.9-2.8-6.9-7.4 0-4.7 3-7.5 6.9-7.5 3.8 0 6.8 2.8 6.8 7.5 0 4.6-3 7.4-6.8 7.4zm41-20.9v13.3c0 5-2.6 7.3-6.2 7.3-3.5 0-5.5-2-5.5-6.5v-14.1h-7.8v15.2c0 8.3 4.8 12.1 11.5 12.1 3.3 0 6.3-1.2 8.4-3.6v3.2h7.4v-26.9zm18.9-3.7c2.9 0 4.9-1.9 4.9-4.5 0-2.4-2-4.2-4.9-4.2-2.9 0-4.8 1.9-4.8 4.3 0 2.5 1.9 4.4 4.8 4.4zm-3.9 30.6h7.8v-26.9h-7.8zm31-27.3c-3.6 0-6.5 1.2-8.5 3.5v-3.1h-7.4v36.6h7.8v-12.6c2 2.3 4.7 3.3 8.1 3.3 7.5 0 13.4-5.4 13.4-13.9 0-8.4-5.9-13.8-13.4-13.8zm-1.4 21.3c-3.9 0-6.8-2.8-6.8-7.5 0-4.6 2.9-7.4 6.8-7.4 3.9 0 6.9 2.8 6.9 7.5 0 4.6-3 7.4-6.9 7.4zm54.4-21.3c-4 0-7.5 1.7-9.7 4.4-1.9-3-5.1-4.4-8.8-4.4-3.5 0-6.5 1.2-8.5 3.5v-3.1h-7.4v26.9h7.8v-13.5c0-4.8 2.4-7 5.9-7 3.2 0 5.1 2 5.1 6.3v14.2h7.8v-13.5c0-4.8 2.4-7 5.9-7 3.2 0 5.1 2 5.1 6.3v14.2h7.8v-15.4c0-8.2-4.6-11.9-11-11.9zm44.7 13.9c0-8.6-6.1-13.9-14-13.9-8.2 0-14.4 5.8-14.4 13.9 0 8 6.1 13.8 15.4 13.8 4.8 0 8.6-1.5 11.1-4.3l-4.2-4.5c-1.8 1.7-3.9 2.5-6.7 2.5-4.1 0-7-2-7.7-5.4h20.3c0.1-0.6 0.2-1.5 0.2-2.1zm-14-8c3.5 0 6.1 2.2 6.6 5.6h-13.2c0.5-3.4 3.1-5.6 6.6-5.6zm35.5-5.9c-3.6 0-6.8 1.3-8.9 3.5v-3.1h-7.4v26.9h7.8v-13.3c0-5 2.7-7.2 6.4-7.2 3.5 0 5.5 2 5.5 6.3v14.2h7.8v-15.4c0-8.2-4.8-11.9-11.2-11.9zm33.5 20.5c-0.9 0.6-2 1-3.2 1-2.1 0-3.3-1.2-3.3-3.5v-11h6.7v-6h-6.7v-6.5h-7.8v6.5h-4.2v6h4.2v11c0 6.5 3.7 9.7 10 9.7 2.4 0 4.8-0.6 6.4-1.7zm15.5 7.2c8.1 0 12.7-3.6 12.7-8.6 0-10.6-16.2-6.1-16.2-10.7 0-1.4 1.5-2.5 5-2.5 2.4 0 5.1 0.5 7.7 2l2.6-5.6c-2.5-1.5-6.6-2.3-10.3-2.3-7.9 0-12.5 3.6-12.5 8.7 0 10.7 16.3 6.2 16.3 10.6 0 1.5-1.4 2.5-5 2.5-3.3 0-6.9-1.1-9.3-2.6l-2.6 5.6c2.5 1.6 7.1 2.9 11.6 2.9zm42.5-27.7c-4.3 0-8.6 1.1-11.6 3.2l2.8 5.5c2-1.6 4.9-2.5 7.8-2.5 4.2 0 6.2 1.9 6.2 5.3h-6.2c-8.2 0-11.6 3.3-11.6 8 0 4.7 3.8 8.2 10.1 8.2 3.9 0 6.7-1.3 8.2-3.8v3.4h7.3v-15.4c0-8.1-4.8-11.9-13-11.9zm-0.6 22.4c-2.7 0-4.4-1.3-4.4-3.2 0-1.8 1.2-3.2 4.8-3.2h5.4v2.8c-0.9 2.4-3.2 3.6-5.8 3.6zm39.3-22l-7.7 18.3-7.4-18.3h-8.1l11.3 26.9h8.1l11.3-26.9zm20.7-0.4c-4.3 0-8.7 1.1-11.6 3.2l2.8 5.5c1.9-1.6 4.9-2.5 7.7-2.5 4.2 0 6.2 1.9 6.2 5.3h-6.2c-8.2 0-11.5 3.3-11.5 8 0 4.7 3.7 8.2 10 8.2 4 0 6.8-1.3 8.2-3.8v3.4h7.3v-15.4c0-8.1-4.7-11.9-12.9-11.9zm-0.6 22.4c-2.8 0-4.4-1.3-4.4-3.2 0-1.8 1.1-3.2 4.8-3.2h5.3v2.8c-0.9 2.4-3.1 3.6-5.7 3.6zm24.5-25.8c2.9 0 4.8-1.9 4.8-4.5 0-2.4-1.9-4.2-4.8-4.2-2.9 0-4.9 1.9-4.9 4.4 0 2.4 2 4.3 4.9 4.3zm-3.9 30.7h7.8v-26.9h-7.8zm15 0h7.8v-37.1h-7.8zm25.9-27.3c-4.3 0-8.6 1.1-11.6 3.2l2.8 5.5c2-1.6 4.9-2.5 7.8-2.5 4.2 0 6.2 1.9 6.2 5.3h-6.2c-8.2 0-11.6 3.3-11.6 8 0 4.7 3.8 8.2 10.1 8.2 3.9 0 6.7-1.3 8.2-3.8v3.4h7.3v-15.4c0-8.1-4.8-11.9-13-11.9zm-0.6 22.4c-2.7 0-4.4-1.3-4.4-3.2 0-1.8 1.2-3.2 4.8-3.2h5.4v2.8c-0.9 2.4-3.2 3.6-5.8 3.6zm36.5-22.4c-3.3 0-6.1 1-8.1 3.2v-13h-7.8v37.1h7.5v-3.1c1.9 2.3 4.8 3.5 8.4 3.5 7.6 0 13.4-5.4 13.4-13.9 0-8.4-5.8-13.8-13.4-13.8zm-1.3 21.3c-3.9 0-6.9-2.8-6.9-7.5 0-4.6 3-7.4 6.9-7.4 3.9 0 6.8 2.8 6.8 7.4 0 4.7-2.9 7.5-6.8 7.5zm19.9 6h7.8v-37.1h-7.8zm41.4-13.4c0-8.6-6.1-13.9-14-13.9-8.2 0-14.3 5.8-14.3 13.8 0 8 6 13.9 15.3 13.9 4.9 0 8.6-1.5 11.1-4.4l-4.1-4.5c-1.9 1.8-3.9 2.6-6.8 2.6-4.1 0-6.9-2-7.7-5.3l20.4-0.1c0-0.6 0.1-1.5 0.1-2.1zm-13.9-8c3.5 0 6 2.2 6.6 5.6h-13.3c0.6-3.4 3.1-5.6 6.7-5.6z"/><path fill="#fe485580" d="m281.7 814.5c0-2.6 1.2-3.9 3.5-3.9 1.2 0 2.3 0.4 3.2 1l2-5.7c-1.4-1-3.7-1.4-5.9-1.4-6.7 0-10.4 3.9-10.4 10v1.2h-4.2v6h4.2v20.3h7.8v-20.3h6.7v-6h-6.9zm21.1 0.1c-4.3 0-8.6 1.2-11.6 3.3l2.8 5.4c2-1.5 4.9-2.5 7.8-2.5 4.2 0 6.2 2 6.2 5.3h-6.2c-8.2 0-11.6 3.3-11.6 8.1 0 4.6 3.8 8.1 10.1 8.1 3.9 0 6.7-1.2 8.2-3.7v3.3h7.3v-15.3c0-8.2-4.8-12-13-12zm-0.6 22.5c-2.7 0-4.4-1.3-4.4-3.3 0-1.7 1.2-3.1 4.8-3.1h5.4v2.7c-0.9 2.5-3.2 3.7-5.8 3.7zm29.7 5.2c8 0 12.7-3.5 12.7-8.5 0-10.6-16.3-6.2-16.3-10.7 0-1.5 1.5-2.5 5-2.5 2.5 0 5.1 0.5 7.8 2l2.6-5.6c-2.6-1.5-6.7-2.4-10.4-2.4-7.8 0-12.4 3.6-12.4 8.7 0 10.8 16.2 6.3 16.2 10.7 0 1.5-1.3 2.4-4.9 2.4-3.3 0-7-1-9.4-2.6l-2.6 5.6c2.5 1.7 7.1 2.9 11.7 2.9zm32.7-7.1c-0.8 0.6-2 1-3.1 1-2.1 0-3.4-1.3-3.4-3.6v-11h6.7v-6h-6.7v-6.5h-7.8v6.5h-4.1v6h4.1v11.1c0 6.4 3.7 9.6 10.1 9.6 2.4 0 4.7-0.5 6.3-1.6zm40-20.1v13.2c0 5-2.6 7.3-6.2 7.3-3.5 0-5.5-2-5.5-6.5v-14h-7.8v15.1c0 8.4 4.8 12.1 11.5 12.1 3.3 0 6.3-1.2 8.4-3.6v3.2h7.4v-26.8zm30.9-0.5c-3.6 0-6.5 1.2-8.4 3.5v-3h-7.5v36.6h7.8v-12.6c2 2.2 4.8 3.2 8.1 3.2 7.6 0 13.4-5.4 13.4-13.8 0-8.4-5.8-13.9-13.4-13.9zm-1.3 21.3c-3.9 0-6.9-2.7-6.9-7.4 0-4.7 3-7.4 6.9-7.4 3.9 0 6.8 2.7 6.8 7.4 0 4.7-2.9 7.4-6.8 7.4zm39.5-31.1v13.1c-1.9-2.2-4.7-3.3-8-3.3-7.6 0-13.5 5.5-13.5 13.9 0 8.4 5.9 13.8 13.5 13.8 3.6 0 6.4-1.1 8.4-3.5v3.1h7.4v-37.1zm-6.7 31.1c-3.9 0-6.9-2.7-6.9-7.4 0-4.7 3-7.4 6.9-7.4 3.9 0 6.9 2.7 6.9 7.4 0 4.7-3 7.4-6.9 7.4zm32.6-21.3c-4.3 0-8.7 1.2-11.6 3.3l2.8 5.4c1.9-1.5 4.9-2.5 7.7-2.5 4.2 0 6.2 2 6.2 5.3h-6.2c-8.2 0-11.5 3.3-11.5 8.1 0 4.6 3.7 8.1 10 8.1 4 0 6.8-1.2 8.2-3.7v3.3h7.3v-15.3c0-8.2-4.7-12-12.9-12zm-0.6 22.5c-2.8 0-4.4-1.3-4.4-3.3 0-1.7 1.1-3.1 4.8-3.1h5.3v2.7c-0.9 2.5-3.1 3.7-5.7 3.7zm35.8-1.9c-0.8 0.6-2 1-3.1 1-2.1 0-3.4-1.3-3.4-3.6v-11h6.7v-6h-6.7v-6.5h-7.8v6.5h-4.1v6h4.1v11.1c0 6.4 3.7 9.6 10.1 9.6 2.4 0 4.7-0.5 6.3-1.6zm32-6.6c0-8.7-6.1-14-14-14-8.2 0-14.3 5.8-14.3 13.9 0 8 6 13.8 15.3 13.8 4.9 0 8.6-1.5 11.1-4.3l-4.1-4.5c-1.9 1.7-3.9 2.6-6.8 2.6-4.1 0-6.9-2-7.7-5.4h20.4c0-0.6 0.1-1.5 0.1-2.1zm-13.9-8c3.5 0 6 2.1 6.6 5.5h-13.3c0.6-3.4 3.1-5.5 6.7-5.5zm28.2 21.7c8 0 12.7-3.5 12.7-8.5 0-10.6-16.3-6.2-16.3-10.7 0-1.5 1.5-2.5 5-2.5 2.5 0 5.1 0.5 7.8 2l2.6-5.6c-2.6-1.5-6.7-2.4-10.4-2.4-7.8 0-12.4 3.6-12.4 8.7 0 10.8 16.2 6.3 16.2 10.7 0 1.5-1.3 2.4-4.9 2.4-3.3 0-7-1-9.4-2.6l-2.6 5.6c2.5 1.7 7.1 2.9 11.7 2.9z"/><path fill="#fe485580" d="m1048.4 854.1v13.3c0 4.9-2.6 7.2-6.2 7.2-3.5 0-5.5-2-5.5-6.5v-14h-7.8v15.2c0 8.3 4.8 12.1 11.5 12.1 3.3 0 6.3-1.3 8.4-3.6v3.2h7.4v-26.9zm31.4-0.4c-3.7 0-6.8 1.3-8.9 3.5v-3.1h-7.5v26.9h7.8v-13.3c0-5 2.7-7.2 6.5-7.2 3.4 0 5.4 2 5.4 6.3v14.2h7.8v-15.4c0-8.2-4.8-11.9-11.1-11.9zm22.1-3.3c2.9 0 4.8-1.9 4.8-4.5 0-2.4-1.9-4.3-4.8-4.3-2.9 0-4.9 1.9-4.9 4.4 0 2.5 2 4.4 4.9 4.4zm-3.9 30.6h7.8v-26.9h-7.8zm34.9-26.9v3.1c-2-2.3-4.8-3.5-8.4-3.5-7.6 0-13.5 5.4-13.5 13.8 0 8.5 5.9 13.9 13.5 13.9 3.3 0 6.1-1 8-3.3v12.6h7.9v-36.6zm-7.1 20.9c-3.9 0-6.9-2.8-6.9-7.5 0-4.6 3-7.4 6.9-7.4 3.8 0 6.8 2.8 6.8 7.4 0 4.7-3 7.5-6.8 7.5zm41-20.9v13.3c0 5-2.6 7.2-6.2 7.2-3.5 0-5.5-2-5.5-6.5v-14h-7.8l0.1 15.2c0 8.3 4.7 12.1 11.5 12.1 3.2 0 6.2-1.3 8.3-3.6v3.2h7.4v-26.9zm41.4 13.5c0-8.6-6.1-13.9-14-13.9-8.2 0-14.3 5.8-14.3 13.8 0 8 6 13.9 15.3 13.9 4.9 0 8.6-1.5 11.1-4.4l-4.1-4.5c-1.9 1.8-3.9 2.6-6.8 2.6-4.1 0-6.9-2-7.7-5.4h20.4c0-0.6 0.1-1.5 0.1-2.1zm-13.9-8c3.5 0 6 2.2 6.6 5.6h-13.3c0.6-3.5 3.1-5.6 6.7-5.6zm41.8-6.1c0-2.6 1.3-3.9 3.6-3.9 1.2 0 2.3 0.4 3.1 1l2.1-5.6c-1.5-1-3.8-1.5-6-1.5-6.7 0-10.4 4-10.4 10v1.2h-4.1v6h4.1v20.3h7.8v-20.3h6.7v-6h-6.9zm36.8 14.1c0-8.6-6.1-13.9-14-13.9-8.2 0-14.3 5.8-14.3 13.8 0 8 6 13.9 15.3 13.9 4.9 0 8.6-1.5 11.1-4.4l-4.1-4.5c-1.9 1.8-3.9 2.6-6.8 2.6-4.1 0-6.9-2-7.7-5.4h20.4c0-0.6 0.1-1.5 0.1-2.1zm-13.9-8c3.5 0 6 2.2 6.6 5.6h-13.3c0.6-3.5 3.1-5.6 6.7-5.6zm29.2-5.9c-4.3 0-8.6 1.1-11.6 3.2l2.8 5.5c2-1.6 4.9-2.5 7.8-2.5 4.2 0 6.2 1.9 6.2 5.3h-6.2c-8.2 0-11.6 3.3-11.6 8 0 4.7 3.8 8.2 10.1 8.2 3.9 0 6.7-1.3 8.2-3.8v3.4h7.3v-15.4c0-8.1-4.8-11.9-13-11.9zm-0.6 22.4c-2.7 0-4.4-1.3-4.4-3.2 0-1.8 1.2-3.2 4.8-3.2h5.4v2.8c-0.9 2.4-3.2 3.6-5.8 3.6zm35.9-1.9c-0.9 0.6-2 1-3.2 1-2.1 0-3.3-1.3-3.3-3.6v-10.9h6.7v-6h-6.7v-6.6h-7.8v6.6h-4.2v6h4.2v11c0 6.4 3.7 9.7 10 9.7 2.4 0 4.8-0.6 6.4-1.7zm25.8-20.1v13.3c0 4.9-2.6 7.2-6.2 7.2-3.5 0-5.5-2-5.5-6.5v-14h-7.8v15.2c0 8.3 4.8 12.1 11.5 12.1 3.3 0 6.3-1.3 8.4-3.6v3.2h7.4v-26.9zm22.5 3.5v-3.5h-7.5v26.9h7.8v-12.7c0-5.2 2.9-7.5 7.2-7.5 0.6 0 1.1 0 1.7 0.1v-7.2c-4.1 0-7.3 1.3-9.2 3.9zm40 10c0-8.6-6.1-13.9-14-13.9-8.2 0-14.4 5.8-14.4 13.8 0 8 6.1 13.9 15.4 13.9 4.8 0 8.6-1.5 11.1-4.4l-4.2-4.5c-1.8 1.8-3.9 2.6-6.7 2.6-4.1 0-7-2-7.7-5.4h20.3c0.1-0.6 0.2-1.5 0.2-2.1zm-14-8c3.5 0 6.1 2.2 6.6 5.6h-13.2c0.5-3.5 3.1-5.6 6.6-5.6zm28.2 21.8c8.1 0 12.7-3.6 12.7-8.6 0-10.6-16.2-6.1-16.2-10.7 0-1.4 1.5-2.5 5-2.5 2.4 0 5.1 0.5 7.7 2l2.6-5.6c-2.5-1.5-6.6-2.3-10.3-2.3-7.9 0-12.5 3.6-12.5 8.7 0 10.7 16.3 6.2 16.3 10.6 0 1.5-1.4 2.5-5 2.5-3.3 0-6.9-1.1-9.3-2.6l-2.6 5.6c2.5 1.6 7.1 2.9 11.6 2.9z"/></svg>
