<svg xmlns="http://www.w3.org/2000/svg" version="1.2" viewBox="0 0 800 800" width="800" height="800">
	<title>TLVK^R</title>
	<path d="m0 0h800v800h-800z" fill="#111723"/>
	<path d="m261.6 251.2l-58.2-15.3 13.6-51.9 183.6 48.1-13.7 52-58.2-15.3-38.6 146.9-67-17.6zm138.8-52.6h68.3v149.5h91.3v52.9h-159.6zm-0.7 202l-85.6 202.3h-67.1l-85.5-202.3h73.4l48.3 118.2 49.4-118.2zm83.2 135.3l-15.4 17v50h-67v-202.3h67v73.4l66.5-73.4h74.3l-80.9 89 85 113.3h-79z" fill="#fe4855"/>
	<path fill-rule="evenodd" d="m587.4 251.8h-20.5v37.2h-37.6v-140h60.8c36.3 0 59.1 19.8 59.1 51.8 0 20.6-9.5 35.8-26 44.2l28.7 44h-40.3zm0.4-71.6h-21v41h21c15.5 0 23.3-7.6 23.3-20.4 0-13-7.8-20.6-23.3-20.6z" fill="#fe4855"/>
</svg>
